<svg width="1200" height="1200" viewBox="0 0 1200 1200" fill="none" xmlns="http://www.w3.org/2000/svg">
  <rect width="1200" height="1200" fill="#08090F"/>
  <circle cx="260" cy="920" r="240" fill="#32C4FF" fill-opacity="0.14"/>
  <circle cx="950" cy="260" r="230" fill="#FF4FB8" fill-opacity="0.2"/>
  <path d="M130 370C330 280 550 290 1050 420" stroke="#3BD2FF" stroke-width="8" stroke-linecap="round"/>
  <path d="M110 510C340 430 560 430 1070 560" stroke="#B56BFF" stroke-width="8" stroke-linecap="round"/>
  <path d="M150 650C380 570 630 580 1060 700" stroke="#FF4FB8" stroke-width="8" stroke-linecap="round"/>
  <g>
    <circle cx="280" cy="330" r="22" fill="#3BD2FF"/>
    <circle cx="470" cy="320" r="21" fill="#9D6BFF"/>
    <circle cx="660" cy="340" r="23" fill="#FF4FB8"/>
    <circle cx="850" cy="380" r="21" fill="#3BD2FF"/>
    <circle cx="290" cy="470" r="24" fill="#FF4FB8"/>
    <circle cx="470" cy="460" r="21" fill="#3BD2FF"/>
    <circle cx="650" cy="480" r="22" fill="#9D6BFF"/>
    <circle cx="840" cy="520" r="23" fill="#FF4FB8"/>
    <circle cx="320" cy="620" r="22" fill="#9D6BFF"/>
    <circle cx="510" cy="610" r="23" fill="#3BD2FF"/>
    <circle cx="700" cy="630" r="21" fill="#FF4FB8"/>
    <circle cx="890" cy="670" r="22" fill="#3BD2FF"/>
  </g>
  <text x="100" y="1040" fill="#F2EEFF" font-family="Arial, sans-serif" font-size="78" letter-spacing="8">AURORA RGB</text>
</svg>
