<svg width="1200" height="1200" viewBox="0 0 1200 1200" fill="none" xmlns="http://www.w3.org/2000/svg">
  <rect width="1200" height="1200" fill="#090B12"/>
  <circle cx="840" cy="260" r="180" fill="#DCCFAE" fill-opacity="0.22"/>
  <path d="M170 760C380 560 630 550 980 660" stroke="#9FB7D8" stroke-width="6" stroke-linecap="round"/>
  <g fill="#FFF1C5">
    <circle cx="220" cy="720" r="11"/>
    <circle cx="320" cy="670" r="10"/>
    <circle cx="420" cy="640" r="9"/>
    <circle cx="520" cy="615" r="10"/>
    <circle cx="630" cy="610" r="11"/>
    <circle cx="740" cy="620" r="10"/>
    <circle cx="850" cy="650" r="11"/>
    <circle cx="960" cy="690" r="10"/>
  </g>
  <g fill="#FFF8DF" fill-opacity="0.82">
    <circle cx="220" cy="270" r="5"/>
    <circle cx="330" cy="190" r="4"/>
    <circle cx="410" cy="250" r="6"/>
    <circle cx="540" cy="150" r="5"/>
    <circle cx="640" cy="210" r="4"/>
    <circle cx="770" cy="130" r="5"/>
    <circle cx="920" cy="180" r="6"/>
  </g>
  <text x="100" y="1040" fill="#F1E8D5" font-family="Arial, sans-serif" font-size="78" letter-spacing="8">MOONLACE FAIRY</text>
</svg>
