<svg width="1200" height="1200" viewBox="0 0 1200 1200" fill="none" xmlns="http://www.w3.org/2000/svg">
  <rect width="1200" height="1200" fill="#0A0C10"/>
  <rect x="140" y="180" width="920" height="700" rx="36" fill="#121826"/>
  <path d="M240 180V880" stroke="#D8EBFF" stroke-opacity="0.6" stroke-width="5"/>
  <path d="M380 180V880" stroke="#D8EBFF" stroke-opacity="0.6" stroke-width="5"/>
  <path d="M520 180V880" stroke="#D8EBFF" stroke-opacity="0.6" stroke-width="5"/>
  <path d="M660 180V880" stroke="#D8EBFF" stroke-opacity="0.6" stroke-width="5"/>
  <path d="M800 180V880" stroke="#D8EBFF" stroke-opacity="0.6" stroke-width="5"/>
  <path d="M940 180V880" stroke="#D8EBFF" stroke-opacity="0.6" stroke-width="5"/>
  <g fill="#F5FAFF">
    <circle cx="240" cy="250" r="16"/>
    <circle cx="240" cy="430" r="16"/>
    <circle cx="240" cy="610" r="16"/>
    <circle cx="240" cy="790" r="16"/>
    <circle cx="380" cy="290" r="16"/>
    <circle cx="380" cy="470" r="16"/>
    <circle cx="380" cy="650" r="16"/>
    <circle cx="380" cy="830" r="16"/>
    <circle cx="520" cy="250" r="16"/>
    <circle cx="520" cy="430" r="16"/>
    <circle cx="520" cy="610" r="16"/>
    <circle cx="520" cy="790" r="16"/>
    <circle cx="660" cy="290" r="16"/>
    <circle cx="660" cy="470" r="16"/>
    <circle cx="660" cy="650" r="16"/>
    <circle cx="660" cy="830" r="16"/>
    <circle cx="800" cy="250" r="16"/>
    <circle cx="800" cy="430" r="16"/>
    <circle cx="800" cy="610" r="16"/>
    <circle cx="800" cy="790" r="16"/>
    <circle cx="940" cy="290" r="16"/>
    <circle cx="940" cy="470" r="16"/>
    <circle cx="940" cy="650" r="16"/>
    <circle cx="940" cy="830" r="16"/>
  </g>
  <text x="100" y="1040" fill="#EAF4FF" font-family="Arial, sans-serif" font-size="78" letter-spacing="8">VELVET CURTAIN</text>
</svg>
